<?xml version="1.0" encoding="utf-8"?>
<!-- Generator: Adobe Illustrator 24.3.0, SVG Export Plug-In . SVG Version: 6.00 Build 0)  -->
<svg version="1.1" id="Capa_1" xmlns="http://www.w3.org/2000/svg" xmlns:xlink="http://www.w3.org/1999/xlink" x="0px" y="0px"
	 viewBox="0 0 563.2 206" style="enable-background:new 0 0 563.2 206;" xml:space="preserve">
<style type="text/css">
	.st0{clip-path:url(#SVGID_2_);}
	.st1{fill:#FFF71A;}
</style>
<g>
	<defs>
		<rect id="SVGID_1_" width="563.2" height="206"/>
	</defs>
	<clipPath id="SVGID_2_">
		<use xlink:href="#SVGID_1_"  style="overflow:visible;"/>
	</clipPath>
	<g class="st0">
		<path d="M104.6,169.5c0,1-0.2,1.8-0.5,2.5c-0.4,0.7-0.9,1.2-1.5,1.6c-0.6,0.4-1.3,0.7-2.1,0.9c-0.8,0.2-1.6,0.3-2.5,0.3h-2v6.3h-4
			v-16.7h6.1c0.9,0,1.8,0.1,2.5,0.3c0.8,0.2,1.5,0.5,2.1,0.9c0.6,0.4,1.1,0.9,1.4,1.6C104.5,167.7,104.6,168.5,104.6,169.5z
			 M100.6,169.5c0-0.4-0.1-0.7-0.2-1c-0.2-0.3-0.4-0.4-0.6-0.6c-0.3-0.1-0.6-0.2-0.9-0.3c-0.3,0-0.7-0.1-1-0.1H96v3.9h1.7
			c0.4,0,0.7,0,1.1-0.1c0.3-0.1,0.7-0.2,0.9-0.3c0.3-0.2,0.5-0.4,0.7-0.6C100.5,170.2,100.6,169.9,100.6,169.5z"/>
		<path d="M113,181.1v-16.7h4.1v13.2h6.5v3.5H113z"/>
		<path d="M142.6,181.1l-1.3-3.3h-6.5l-1.2,3.3h-4.4l7-16.7h3.9l6.9,16.7H142.6z M138.1,168.8l-2.1,5.7h4.2L138.1,168.8z"/>
		<path d="M161.1,174v7.1h-4V174l-6.3-9.6h4.9l3.6,6.2l3.6-6.2h4.7L161.1,174z"/>
		<path d="M177,179c0,0.7-0.2,1.2-0.7,1.7c-0.5,0.4-1,0.7-1.7,0.7c-0.3,0-0.6-0.1-0.9-0.2c-0.3-0.1-0.5-0.3-0.8-0.5
			c-0.2-0.2-0.4-0.4-0.5-0.7c-0.1-0.3-0.2-0.6-0.2-0.9c0-0.3,0.1-0.6,0.2-0.9c0.1-0.3,0.3-0.5,0.5-0.7c0.2-0.2,0.5-0.4,0.8-0.5
			c0.3-0.1,0.6-0.2,0.9-0.2c0.6,0,1.2,0.2,1.7,0.7C176.8,177.8,177,178.3,177,179z"/>
		<path d="M196.9,181.1v-16.7h11.2v3.4h-7.3v3.1h6.9v3.2h-6.9v3.5h7.8v3.5H196.9z"/>
		<path d="M228.4,181.1l-1.3-3.3h-6.5l-1.2,3.3h-4.4l7-16.7h3.9l6.9,16.7H228.4z M224,168.8l-2.1,5.7h4.2L224,168.8z"/>
		<path d="M249.1,181.1l-3.6-6.6h-1.4v6.6h-4v-16.7h6.4c0.8,0,1.6,0.1,2.3,0.3c0.8,0.2,1.5,0.4,2.1,0.8c0.6,0.4,1.1,0.9,1.5,1.6
			s0.5,1.4,0.5,2.4c0,1.1-0.3,2.1-0.9,2.9c-0.6,0.8-1.5,1.3-2.5,1.7l4.4,7.2H249.1z M249,169.5c0-0.4-0.1-0.7-0.3-0.9
			c-0.2-0.3-0.4-0.4-0.6-0.6c-0.3-0.1-0.5-0.2-0.9-0.3c-0.3,0-0.6-0.1-0.9-0.1h-2.1v3.9h1.9c0.3,0,0.7,0,1-0.1
			c0.3-0.1,0.7-0.2,0.9-0.3c0.3-0.1,0.5-0.3,0.7-0.6C248.9,170.2,249,169.9,249,169.5z"/>
		<path d="M272.4,181.1l-6.7-10.9h-0.1l0.1,10.9h-3.9v-16.7h4.6l6.7,10.9h0.1l-0.1-10.9h3.9v16.7H272.4z"/>
		<path d="M290.5,179c0,0.7-0.2,1.2-0.7,1.7c-0.5,0.4-1,0.7-1.7,0.7c-0.3,0-0.6-0.1-0.9-0.2c-0.3-0.1-0.5-0.3-0.8-0.5
			c-0.2-0.2-0.4-0.4-0.5-0.7c-0.1-0.3-0.2-0.6-0.2-0.9c0-0.3,0.1-0.6,0.2-0.9c0.1-0.3,0.3-0.5,0.5-0.7c0.2-0.2,0.5-0.4,0.8-0.5
			c0.3-0.1,0.6-0.2,0.9-0.2c0.6,0,1.2,0.2,1.7,0.7C290.3,177.8,290.5,178.3,290.5,179z"/>
		<path d="M325.1,178.7c-0.7,0.9-1.7,1.5-2.7,2c-1.1,0.5-2.3,0.7-3.8,0.7c-1.3,0-2.5-0.2-3.6-0.6c-1.1-0.4-2-1-2.8-1.8
			c-0.8-0.8-1.4-1.7-1.9-2.8c-0.5-1.1-0.7-2.3-0.7-3.6c0-1.3,0.2-2.6,0.7-3.6c0.5-1.1,1.1-2,1.9-2.8c0.8-0.8,1.8-1.4,2.9-1.8
			c1.1-0.4,2.3-0.6,3.6-0.6c1.2,0,2.3,0.2,3.5,0.6c1.1,0.4,2.1,1,2.8,1.8l-2.7,2.7c-0.4-0.5-0.9-0.9-1.5-1.2
			c-0.6-0.3-1.2-0.4-1.9-0.4c-0.7,0-1.4,0.1-2,0.4c-0.6,0.3-1.1,0.6-1.5,1.1c-0.4,0.5-0.8,1-1,1.6c-0.2,0.6-0.4,1.3-0.4,2
			c0,0.8,0.1,1.4,0.4,2.1s0.6,1.2,1,1.6c0.4,0.4,0.9,0.8,1.5,1c0.6,0.3,1.2,0.4,1.9,0.4c0.8,0,1.5-0.2,2.1-0.5
			c0.6-0.3,1.1-0.7,1.4-1.2L325.1,178.7z"/>
		<path d="M349.8,172.6c0,1.3-0.2,2.5-0.7,3.6c-0.5,1.1-1.1,2-1.9,2.8c-0.8,0.8-1.8,1.4-2.9,1.8c-1.1,0.4-2.3,0.6-3.6,0.6
			c-1.3,0-2.5-0.2-3.6-0.6c-1.1-0.4-2.1-1-2.9-1.8c-0.8-0.8-1.4-1.7-1.9-2.8c-0.5-1.1-0.7-2.3-0.7-3.6c0-1.3,0.2-2.5,0.7-3.6
			c0.5-1.1,1.1-2,1.9-2.8c0.8-0.8,1.8-1.3,2.9-1.7c1.1-0.4,2.3-0.6,3.6-0.6c1.3,0,2.5,0.2,3.6,0.6c1.1,0.4,2.1,1,2.9,1.7
			c0.8,0.8,1.5,1.7,1.9,2.8C349.6,170.1,349.8,171.3,349.8,172.6z M345.5,172.6c0-0.7-0.1-1.4-0.4-2c-0.2-0.6-0.6-1.2-1-1.6
			c-0.4-0.5-0.9-0.8-1.5-1.1c-0.6-0.3-1.2-0.4-1.9-0.4c-0.7,0-1.4,0.1-1.9,0.4c-0.6,0.3-1.1,0.6-1.5,1.1c-0.4,0.4-0.8,1-1,1.6
			c-0.2,0.6-0.3,1.3-0.3,2c0,0.8,0.1,1.5,0.4,2.1c0.2,0.6,0.6,1.2,1,1.6c0.4,0.5,0.9,0.8,1.5,1.1c0.6,0.3,1.2,0.4,1.9,0.4
			c0.7,0,1.4-0.1,1.9-0.4c0.6-0.3,1.1-0.6,1.5-1.1s0.8-1,1-1.6C345.4,174.1,345.5,173.4,345.5,172.6z"/>
		<path d="M369,181.1l-6.7-10.9h-0.1l0.1,10.9h-3.9v-16.7h4.6l6.7,10.9h0.1l-0.1-10.9h3.9v16.7H369z"/>
		<path d="M393.6,181.1l-6.7-10.9h-0.1l0.1,10.9h-3.9v-16.7h4.6l6.7,10.9h0.1l-0.1-10.9h3.9v16.7H393.6z"/>
		<path d="M407.5,181.1v-16.7h11.2v3.4h-7.3v3.1h6.9v3.2h-6.9v3.5h7.8v3.5H407.5z"/>
		<path d="M442.4,178.7c-0.7,0.9-1.7,1.5-2.7,2c-1.1,0.5-2.3,0.7-3.8,0.7c-1.3,0-2.5-0.2-3.6-0.6c-1.1-0.4-2-1-2.8-1.8
			c-0.8-0.8-1.4-1.7-1.9-2.8c-0.5-1.1-0.7-2.3-0.7-3.6c0-1.3,0.2-2.6,0.7-3.6c0.5-1.1,1.1-2,1.9-2.8c0.8-0.8,1.8-1.4,2.9-1.8
			c1.1-0.4,2.3-0.6,3.6-0.6c1.2,0,2.3,0.2,3.5,0.6c1.1,0.4,2.1,1,2.8,1.8l-2.7,2.7c-0.4-0.5-0.9-0.9-1.5-1.2
			c-0.6-0.3-1.2-0.4-1.9-0.4c-0.7,0-1.4,0.1-2,0.4c-0.6,0.3-1.1,0.6-1.5,1.1s-0.8,1-1,1.6c-0.2,0.6-0.4,1.3-0.4,2
			c0,0.8,0.1,1.4,0.4,2.1c0.2,0.6,0.6,1.2,1,1.6c0.4,0.4,0.9,0.8,1.5,1c0.6,0.3,1.2,0.4,1.9,0.4c0.8,0,1.5-0.2,2.1-0.5
			c0.6-0.3,1.1-0.7,1.4-1.2L442.4,178.7z"/>
		<path d="M457.1,167.8v13.3h-4v-13.3h-4.7v-3.5h13.5v3.5H457.1z"/>
		<path d="M471.9,179c0,0.7-0.2,1.2-0.7,1.7c-0.5,0.4-1,0.7-1.7,0.7c-0.3,0-0.6-0.1-0.9-0.2c-0.3-0.1-0.5-0.3-0.8-0.5
			c-0.2-0.2-0.4-0.4-0.5-0.7c-0.1-0.3-0.2-0.6-0.2-0.9c0-0.3,0.1-0.6,0.2-0.9c0.1-0.3,0.3-0.5,0.5-0.7c0.2-0.2,0.5-0.4,0.8-0.5
			c0.3-0.1,0.6-0.2,0.9-0.2c0.6,0,1.2,0.2,1.7,0.7C471.7,177.8,471.9,178.3,471.9,179z"/>
		<path d="M98.4,31.8h20.9v68.5c0,4.2-0.6,8.1-1.9,11.5c-1.2,3.2-3.1,6.1-5.5,8.6c-2.3,2.3-5.2,4.1-8.6,5.4
			c-3.4,1.2-7.3,1.8-11.5,1.8h-5c-4.2,0-8-0.6-11.4-1.8c-3.2-1.2-6.2-3-8.6-5.4c-2.4-2.4-4.2-5.4-5.4-8.6c-1.3-3.4-1.9-7.2-1.9-11.5
			V31.8h20.9v68.5c0,3,0.6,5.1,1.9,6.3c1.3,1.1,3.3,1.6,6.3,1.6h1.7c3,0,5-0.5,6.2-1.6c1.4-1.2,2-3.2,2-6.3L98.4,31.8z M172.9,79.1
			c1.8,0,3.2-0.2,4.2-0.5c1.1-0.4,1.9-0.8,2.5-1.5c0.5-0.7,1-1.7,1.2-2.8c0.2-1.4,0.4-2.8,0.3-4.2v-9.8c0-1.4-0.1-2.8-0.3-4.2
			c-0.3-1.2-0.6-2.1-1.2-2.8c-0.6-0.7-1.4-1.3-2.5-1.5c-1.1-0.4-2.4-0.4-4.2-0.4H163v27.8H172.9z M142.1,126.2V31.8h32.5
			c8.9,0,15.8,2.5,20.4,7.6c4.7,5,6.9,11.9,6.9,20.9v9.6c0,9-2.3,15.9-6.9,20.9c-4.8,5-11.5,7.6-20.4,7.6H163v27.9L142.1,126.2
			L142.1,126.2z M241.4,107h31v19.3h-51.8V31.8h20.9V107z M316,91.2h10.7l-5.4-28.4L316,91.2z M331.6,110.5h-20.3l-3.9,15.8h-21.5
			l25.7-94.4h19.8l25.7,94.4h-21.4L331.6,110.5z M410,77.3V31.8h20.9v94.4h-20.1l-19-45.5v45.5h-20.9V31.8H391L410,77.3z
			 M453.8,31.8h30c9.5,0,16.7,2.2,21.8,6.4c5.5,4.6,8.2,11.5,8.2,20.9v39.8c0,9.4-2.7,16.3-8.2,20.9c-5,4.2-12.3,6.4-21.8,6.4h-30
			V31.8z M474.7,51.2V107h9.1c1.3,0,2.7-0.1,4-0.3c1.2-0.2,2.2-0.5,2.9-1.1c0.7-0.6,1.3-1.4,1.6-2.4c0.4-1.1,0.5-2.4,0.5-4.1V59
			c0-1.7-0.2-3.1-0.5-4.1c-0.4-0.9-0.9-1.8-1.6-2.4c-0.7-0.5-1.7-0.9-2.9-1.1c-1.4-0.2-2.7-0.4-4-0.3H474.7z M119.2,31.8l-11.1-7.4
			H88.6l9.7,7.4H119.2z M80.1,31.8l-9.7-7.4H49.5l9.7,7.4H80.1z M241.4,31.8l-9.7-7.4h-20.9l9.7,7.4H241.4z M220.5,126.2l-9.7-7.4
			h15.3L220.5,126.2z M272.3,107l-9.7-7.4h-21.2v7.4H272.3z M142.1,126.2l-9.7-7.4l20.6-0.2L142.1,126.2z M285.8,126.2l-9.7-7.4
			l21.5-0.2L285.8,126.2z M335.5,126.2l-9.7-7.4l21.3-0.2L335.5,126.2z M331.3,31.8l-9.7-7.4h-19.8l9.7,7.4H331.3z M370.8,126.2
			l-9.7-7.4l20.9-0.2L370.8,126.2z M370.8,31.8l-9.7-7.4h20.1l9.7,7.4H370.8z M410,31.8l-9.7-7.4h20.9l9.7,7.4H410z M410.8,126.2
			l-9.7-7.4l20.1-0.2L410.8,126.2z M453.8,126.2l-9.7-7.4h25.7L453.8,126.2z M183.3,30.1l9,6.8l-11.1-4.6L183.3,30.1z M69,122.5
			l-11.7-9.1h10.2L69,122.5z M495.1,30.3l8,6.2l-8-3.3"/>
		<path class="st1" d="M88.5,24.5h20.9v68.5c0,4.2-0.6,8.1-1.9,11.5c-1.2,3.2-3.1,6.1-5.5,8.6c-2.3,2.3-5.2,4.1-8.6,5.4
			c-3.4,1.2-7.3,1.8-11.5,1.8h-5c-4.2,0-8-0.6-11.4-1.8c-3.2-1.2-6.2-3-8.6-5.4c-2.4-2.4-4.2-5.4-5.4-8.6c-1.3-3.4-1.9-7.2-1.9-11.5
			V24.5h20.9V93c0,3,0.6,5.1,1.9,6.3c1.3,1.1,3.3,1.6,6.3,1.6h1.7c3,0,5-0.5,6.2-1.6c1.3-1.2,2-3.2,2-6.3V24.5z M163.1,71.7
			c1.8,0,3.1-0.2,4.2-0.5c1.1-0.4,1.9-0.8,2.5-1.5c0.5-0.7,1-1.7,1.2-2.8c0.2-1.4,0.4-2.8,0.3-4.2v-9.7c0-1.4-0.1-2.8-0.3-4.2
			c-0.3-1.2-0.6-2.1-1.2-2.8c-0.6-0.7-1.4-1.3-2.5-1.5c-1.1-0.4-2.4-0.4-4.2-0.4h-9.9v27.9L163.1,71.7z M132.2,118.8V24.5h32.5
			c8.9,0,15.8,2.5,20.4,7.6c4.7,5,6.9,11.9,6.9,20.9v9.6c0,9-2.3,15.9-6.9,20.9c-4.8,5-11.5,7.6-20.4,7.6h-11.6v27.9L132.2,118.8
			L132.2,118.8z M231.6,99.5h31v19.3h-51.8V24.5h20.9V99.5z M306.2,83.7h10.7l-5.3-28.4L306.2,83.7z M321.7,103.1h-20.3l-3.9,15.8
			H276l25.7-94.4h19.8l25.7,94.4h-21.4L321.7,103.1z M400.2,69.8V24.5h20.9v94.4H401l-19-45.5v45.5h-20.9V24.5h20.1L400.2,69.8z
			 M444,24.5h30c9.5,0,16.7,2.2,21.8,6.4c5.5,4.6,8.2,11.5,8.2,20.9v39.8c0,9.4-2.7,16.3-8.2,20.9c-5,4.2-12.3,6.4-21.8,6.4h-30
			V24.5z M464.8,43.7v55.8h9.1c1.4,0,2.7-0.1,4.1-0.3c1.2-0.2,2.2-0.5,2.9-1.1c0.7-0.6,1.3-1.4,1.6-2.4c0.4-1.1,0.5-2.4,0.5-4.1v-40
			c0-1.7-0.2-3.1-0.5-4.1c-0.4-0.9-0.9-1.8-1.6-2.4c-0.7-0.5-1.7-0.9-2.9-1.1c-1.4-0.2-2.7-0.4-4.1-0.3L464.8,43.7L464.8,43.7z"/>
	</g>
</g>
</svg>
